<?xml version="1.0" standalone="no"?>
<!DOCTYPE svg PUBLIC "-//W3C//DTD SVG 20010904//EN"
 "http://www.w3.org/TR/2001/REC-SVG-20010904/DTD/svg10.dtd">
<svg version="1.0" xmlns="http://www.w3.org/2000/svg"
 width="500.000000pt" height="500.000000pt" viewBox="0 0 500.000000 500.000000"
 preserveAspectRatio="xMidYMid meet">
<metadata>
Created by potrace 1.11, written by Peter Selinger 2001-2013
</metadata>
<g transform="translate(0.000000,500.000000) scale(0.100000,-0.100000)"
fill="#000000" stroke="none">
<path d="M0 2500 l0 -2500 2500 0 2500 0 0 2500 0 2500 -2500 0 -2500 0 0
-2500z m1945 287 c0 -49 3 -55 22 -36 6 6 28 11 49 11 59 0 74 -26 74 -128 l0
-84 -30 0 -30 0 0 66 c0 73 -12 104 -39 104 -30 0 -40 -22 -43 -95 l-3 -70
-32 -3 -33 -3 0 146 0 146 33 -3 c31 -3 32 -4 32 -51z m785 2 c0 -44 2 -50 14
-40 30 25 109 13 121 -17 4 -9 9 -54 12 -99 l6 -83 -36 0 -36 0 -3 83 c-3 81
-3 82 -30 85 -35 4 -48 -25 -48 -109 0 -59 0 -59 -30 -59 l-30 0 0 145 0 145
30 0 c29 0 30 -1 30 -51z m1460 -36 l0 -87 43 48 c37 42 46 47 76 44 l33 -3
-42 -48 -43 -48 33 -42 c19 -23 38 -48 43 -54 7 -10 0 -13 -30 -13 -35 0 -44
5 -64 35 -28 41 -43 40 -47 -3 -3 -28 -7 -32 -33 -32 l-29 0 0 145 0 145 30 0
30 0 0 -87z m240 37 c0 -27 2 -50 3 -50 2 0 17 7 34 15 24 12 37 13 62 4 41
-14 51 -41 51 -135 l0 -74 -35 0 -34 0 -3 83 c-3 74 -5 82 -24 85 -32 5 -46
-22 -52 -98 -5 -69 -5 -70 -33 -70 l-29 0 0 145 0 145 30 0 c29 0 30 -1 30
-50z m255 30 c9 -27 -1 -40 -31 -40 -26 0 -40 20 -30 45 8 23 53 19 61 -5z
m-3100 -25 c31 -30 32 -58 3 -85 -12 -11 -17 -20 -10 -20 20 0 45 -48 38 -75
-13 -53 -38 -65 -131 -65 l-85 0 0 135 0 135 80 0 c73 0 83 -3 105 -25z m228
-54 c9 -10 16 -48 20 -104 l5 -88 -42 1 c-22 0 -57 -2 -78 -6 -67 -11 -102 53
-55 100 13 13 43 27 66 31 32 5 41 11 39 23 -4 22 -46 28 -54 8 -8 -20 -64
-22 -64 -3 0 52 126 81 163 38z m484 -3 c14 -15 19 -41 22 -105 l3 -84 -38 0
c-22 1 -57 -2 -79 -5 -47 -6 -71 8 -80 48 -9 37 28 73 84 83 32 5 41 11 39 23
-4 23 -39 28 -50 8 -9 -16 -68 -23 -68 -8 0 4 7 17 15 30 30 41 118 47 152 10z
m316 -9 c25 -31 22 -49 -11 -49 -16 0 -32 8 -40 20 -16 25 -48 26 -62 1 -30
-56 5 -135 49 -111 12 6 21 15 21 20 0 6 14 10 30 10 32 0 38 -14 17 -41 -33
-43 -108 -52 -150 -19 -49 39 -54 133 -8 174 43 39 119 37 154 -5z m433 31 c8
0 23 -9 34 -20 17 -17 20 -33 20 -109 l0 -89 -34 8 c-19 4 -40 4 -47 -1 -43
-27 -109 5 -109 51 0 39 33 68 87 76 33 5 43 10 41 23 -4 22 -46 27 -54 7 -8
-21 -64 -22 -64 -1 0 29 66 69 98 59 8 -2 20 -4 28 -4z m286 -23 c5 -8 13 -6
27 7 28 26 81 23 103 -5 14 -16 18 -40 18 -105 l0 -84 -30 0 c-30 0 -30 0 -30
59 0 80 -13 113 -43 109 -20 -3 -22 -9 -25 -85 l-3 -83 -34 0 -34 0 -3 82 c-3
73 -5 83 -22 86 -31 6 -46 -26 -46 -100 l0 -68 -30 0 -30 0 0 105 0 105 30 0
c17 0 30 -5 30 -11 0 -8 4 -8 13 -1 28 23 92 17 109 -11z m369 7 c10 -13 14
-13 28 0 27 24 81 24 105 0 12 -12 16 -37 16 -105 l0 -89 -30 0 -30 0 0 69 c0
81 -6 101 -29 101 -32 0 -41 -22 -41 -97 l0 -73 -30 0 -30 0 0 66 c0 73 -12
104 -39 104 -25 0 -31 -19 -31 -101 l0 -69 -35 0 -35 0 0 105 0 105 35 0 c19
0 35 -4 35 -9 0 -6 11 -4 25 3 29 15 69 10 86 -10z m325 16 c8 0 23 -9 34 -20
17 -17 20 -33 20 -105 l0 -85 -30 0 c-16 0 -30 5 -30 11 0 6 -7 3 -16 -5 -37
-37 -114 -7 -114 44 0 39 33 68 87 76 33 5 43 10 41 23 -4 22 -46 27 -54 7 -8
-21 -64 -22 -64 -1 0 29 66 69 98 59 8 -2 20 -4 28 -4z m664 -103 c0 -57 -2
-106 -5 -109 -3 -2 -18 -3 -35 0 l-30 4 0 104 0 104 35 0 35 0 0 -103z m-3196
-327 c32 -12 66 -65 66 -103 0 -66 -54 -117 -125 -117 l-35 0 0 115 0 115 34
0 c19 0 46 -4 60 -10z m329 3 l-53 -4 0 -45 0 -44 53 -2 52 -2 -53 -3 -53 -4
3 -52 3 -52 55 -6 55 -6 -62 -1 -63 -2 0 115 0 115 58 -2 57 -2 -52 -3z m296
-88 c45 -115 47 -117 66 -70 49 121 69 165 73 160 3 -2 -17 -54 -43 -115 -26
-61 -49 -109 -51 -107 -5 5 -94 218 -94 225 0 17 20 -22 49 -93z"/>
<path d="M1460 2741 c0 -27 3 -31 28 -31 36 0 55 13 50 36 -2 14 -13 20 -41
22 -35 3 -37 2 -37 -27z"/>
<path d="M1460 2630 c0 -36 18 -46 57 -33 20 7 28 16 28 34 0 21 -5 24 -42 27
-42 3 -43 2 -43 -28z"/>
<path d="M1723 2633 c-7 -2 -13 -13 -13 -23 0 -10 6 -20 13 -23 20 -7 47 12
47 33 0 20 -19 25 -47 13z"/>
<path d="M2202 2628 c-17 -17 -15 -35 4 -42 21 -8 44 11 44 35 0 22 -29 26
-48 7z"/>
<path d="M2985 2624 c-14 -15 -15 -19 -2 -31 19 -19 57 -1 57 27 0 25 -32 27
-55 4z"/>
<path d="M3965 2624 c-12 -12 -13 -19 -4 -30 6 -8 15 -14 20 -14 13 0 39 30
39 46 0 19 -35 18 -55 -2z"/>
<path d="M1410 2225 l0 -105 25 0 c14 0 41 6 59 14 39 16 62 68 51 116 -9 41
-58 80 -101 80 l-34 0 0 -105z"/>
</g>
</svg>
