<svg data-v-423bf9ae="" xmlns="http://www.w3.org/2000/svg" viewBox="0 0 774 90" class="iconLeftSlogan"><!----><!----><!----><g data-v-423bf9ae="" id="bfb20ccd-8f61-44a3-9ebd-4c6f473061e5" fill="#ffffff" transform="matrix(5.681818469168412,0,0,5.681818469168412,112.43402306645129,-18.295455871698998)"><path d="M7.11 8.36C8.08 8.02 8.58 7.35 8.58 6.41C8.58 5.12 7.69 4.17 6.12 3.98C5.63 3.92 5.38 3.92 4.87 3.92L1.19 3.92L1.19 13.58L4.86 13.58C5.43 13.58 5.75 13.58 6.23 13.52C7.53 13.36 8.93 12.47 8.93 10.68C8.93 9.46 8.34 8.68 7.11 8.36ZM3.39 5.63L4.66 5.63C4.89 5.63 5.14 5.64 5.33 5.67C5.91 5.75 6.29 6.06 6.29 6.71C6.29 7.35 5.95 7.67 5.35 7.77C5.15 7.80 4.93 7.81 4.70 7.81L3.39 7.81ZM5.56 11.84C5.38 11.86 5.15 11.86 4.93 11.86L3.39 11.86L3.39 9.42L4.84 9.42C5.07 9.42 5.29 9.42 5.52 9.45C6.13 9.51 6.64 9.87 6.64 10.65C6.64 11.38 6.13 11.80 5.56 11.84ZM14.53 13.58L16.67 13.58C16.56 12.75 16.53 12.25 16.53 11.69L16.53 9.42C16.53 8.99 16.52 8.57 16.49 8.22C16.38 6.89 15.58 5.92 13.37 5.92C11.55 5.92 10.11 6.89 10.07 8.60L12.17 8.60C12.22 7.85 12.60 7.43 13.29 7.43C13.94 7.43 14.28 7.80 14.32 8.25C14.35 8.50 14.35 8.69 14.35 8.89L14.35 9.02L13.87 9.02C11.24 9.02 9.80 9.97 9.80 11.59C9.80 13.01 10.93 13.78 12.19 13.78C12.88 13.78 13.51 13.62 14.04 13.29L14.38 12.49ZM13.06 12.26C12.46 12.26 12.05 11.97 12.05 11.41C12.05 10.54 12.99 10.21 14.35 10.32L14.35 10.86C14.35 11.79 13.72 12.26 13.06 12.26ZM25.40 7.98C25.23 6.68 24.32 5.92 22.75 5.92C22.05 5.92 21.52 6.06 21.01 6.40L20.40 7.29L20.40 3.22L18.20 3.22L18.20 13.58L20.40 13.58L20.40 10.12C20.40 8.22 21.04 7.45 21.91 7.43C22.76 7.43 23.18 7.91 23.24 8.67C23.27 9.04 23.27 9.42 23.27 9.70L23.27 13.58L25.47 13.58L25.47 9.37C25.47 8.76 25.45 8.36 25.40 7.98ZM31.39 13.58L33.53 13.58C33.42 12.75 33.39 12.25 33.39 11.69L33.39 9.42C33.39 8.99 33.38 8.57 33.35 8.22C33.24 6.89 32.44 5.92 30.23 5.92C28.41 5.92 26.96 6.89 26.92 8.60L29.02 8.60C29.08 7.85 29.46 7.43 30.14 7.43C30.80 7.43 31.14 7.80 31.18 8.25C31.21 8.50 31.21 8.69 31.21 8.89L31.21 9.02L30.73 9.02C28.10 9.02 26.66 9.97 26.66 11.59C26.66 13.01 27.79 13.78 29.05 13.78C29.74 13.78 30.37 13.62 30.90 13.29L31.23 12.49ZM29.92 12.26C29.32 12.26 28.91 11.97 28.91 11.41C28.91 10.54 29.85 10.21 31.21 10.32L31.21 10.86C31.21 11.79 30.58 12.26 29.92 12.26ZM41.02 5.92C38.91 5.92 37.20 7.35 37.20 9.91C37.20 12.45 38.77 13.78 40.84 13.78C42.78 13.78 44.21 12.81 44.51 10.93L42.34 10.93C42.17 11.80 41.64 12.26 40.96 12.26C40.05 12.26 39.45 11.51 39.45 9.77C39.45 8.19 40.04 7.43 40.96 7.43C41.69 7.43 42.21 7.85 42.36 8.88L44.51 8.88C44.39 7.21 43.11 5.92 41.02 5.92ZM52.88 7.98C52.71 6.68 51.80 5.92 50.23 5.92C49.53 5.92 49 6.06 48.50 6.40L47.88 7.29L47.88 3.22L45.68 3.22L45.68 13.58L47.88 13.58L47.88 10.12C47.88 8.22 48.52 7.45 49.39 7.43C50.25 7.43 50.67 7.91 50.72 8.67C50.75 9.04 50.75 9.42 50.75 9.70L50.75 13.58L52.95 13.58L52.95 9.37C52.95 8.76 52.93 8.36 52.88 7.98ZM58.87 13.58L61.01 13.58C60.90 12.75 60.87 12.25 60.87 11.69L60.87 9.42C60.87 8.99 60.86 8.57 60.83 8.22C60.72 6.89 59.92 5.92 57.71 5.92C55.89 5.92 54.45 6.89 54.40 8.60L56.50 8.60C56.56 7.85 56.94 7.43 57.62 7.43C58.28 7.43 58.62 7.80 58.66 8.25C58.69 8.50 58.69 8.69 58.69 8.89L58.69 9.02L58.21 9.02C55.58 9.02 54.14 9.97 54.14 11.59C54.14 13.01 55.27 13.78 56.53 13.78C57.22 13.78 57.85 13.62 58.38 13.29L58.72 12.49ZM57.40 12.26C56.80 12.26 56.39 11.97 56.39 11.41C56.39 10.54 57.33 10.21 58.69 10.32L58.69 10.86C58.69 11.79 58.06 12.26 57.40 12.26ZM74.03 7.78C73.86 6.76 73.04 5.92 71.58 5.92C70.91 5.92 70.42 6.06 69.99 6.36L69.23 7.36C68.92 6.54 68.15 5.92 66.91 5.92C66.22 5.92 65.74 6.06 65.30 6.36L64.74 7.28L64.74 6.12L62.54 6.12L62.54 13.58L64.74 13.58L64.74 9.70C64.74 8.18 65.14 7.43 65.98 7.43C66.70 7.43 67.07 7.85 67.17 8.60C67.21 8.97 67.23 9.38 67.23 9.73L67.23 13.58L69.41 13.58L69.41 9.70C69.41 8.18 69.83 7.43 70.67 7.43C71.37 7.43 71.76 7.85 71.85 8.60C71.89 8.97 71.90 9.38 71.90 9.73L71.90 13.58L74.10 13.58L74.10 9.17C74.10 8.57 74.09 8.16 74.03 7.78ZM87.16 7.78C87.00 6.76 86.17 5.92 84.71 5.92C84.04 5.92 83.55 6.06 83.12 6.36L82.36 7.36C82.05 6.54 81.28 5.92 80.04 5.92C79.35 5.92 78.88 6.06 78.43 6.36L77.87 7.28L77.87 6.12L75.67 6.12L75.67 13.58L77.87 13.58L77.87 9.70C77.87 8.18 78.27 7.43 79.11 7.43C79.83 7.43 80.21 7.85 80.30 8.60C80.35 8.97 80.36 9.38 80.36 9.73L80.36 13.58L82.54 13.58L82.54 9.70C82.54 8.18 82.96 7.43 83.80 7.43C84.50 7.43 84.90 7.85 84.98 8.60C85.02 8.97 85.04 9.38 85.04 9.73L85.04 13.58L87.23 13.58L87.23 9.17C87.23 8.57 87.22 8.16 87.16 7.78ZM93.16 13.58L95.30 13.58C95.19 12.75 95.16 12.25 95.16 11.69L95.16 9.42C95.16 8.99 95.14 8.57 95.12 8.22C95.00 6.89 94.21 5.92 91.99 5.92C90.17 5.92 88.73 6.89 88.69 8.60L90.79 8.60C90.85 7.85 91.22 7.43 91.91 7.43C92.57 7.43 92.90 7.80 92.95 8.25C92.97 8.50 92.97 8.69 92.97 8.89L92.97 9.02L92.50 9.02C89.87 9.02 88.42 9.97 88.42 11.59C88.42 13.01 89.56 13.78 90.82 13.78C91.50 13.78 92.13 13.62 92.67 13.29L93.00 12.49ZM91.69 12.26C91.08 12.26 90.68 11.97 90.68 11.41C90.68 10.54 91.62 10.21 92.97 10.32L92.97 10.86C92.97 11.79 92.34 12.26 91.69 12.26ZM99.60 10.72L101.77 13.58L104.50 13.58L101.22 9.56L104.45 6.12L101.85 6.12L99.02 9.39L99.02 3.29L96.82 3.29L96.82 13.58L99.02 13.58L99.02 11.35ZM112.49 7.98C112.32 6.68 111.41 5.92 109.84 5.92C109.14 5.92 108.61 6.06 108.11 6.40L107.49 7.29L107.49 3.22L105.29 3.22L105.29 13.58L107.49 13.58L107.49 10.12C107.49 8.22 108.14 7.45 109.00 7.43C109.86 7.43 110.28 7.91 110.33 8.67C110.36 9.04 110.36 9.42 110.36 9.70L110.36 13.58L112.56 13.58L112.56 9.37C112.56 8.76 112.55 8.36 112.49 7.98ZM115.22 3.23C114.52 3.23 114.06 3.67 114.06 4.34C114.06 5.03 114.52 5.46 115.22 5.46C115.92 5.46 116.40 5.03 116.40 4.34C116.40 3.67 115.92 3.23 115.22 3.23ZM116.33 13.58L116.33 6.12L114.13 6.12L114.13 13.58Z"></path></g><!----><g data-v-423bf9ae="" id="b22c58e7-bb08-4704-b940-0164e1396eee" transform="matrix(1.5325670896298305,0,0,1.5325670896298305,-27.330365644507538,-32.649905085652534)" stroke="none" fill="#07A0B4"><path d="M82.7 50.6L63.6 31.3c-.3-.3-.9-.3-1.2 0-.3.3-.3.9 0 1.2L81 51.2 62.3 70c-.3.3-.3.9 0 1.2.2.2.4.3.6.3.2 0 .5-.1.6-.3l19.2-19.3c.4-.4.4-.9 0-1.3zM38.9 31.3c-.3-.3-.9-.3-1.2 0L18.5 50.6c-.3.3-.3.9 0 1.2l19.2 19.3c.2.2.4.3.6.3.2 0 .4-.1.6-.3.3-.3.3-.9 0-1.2L20.4 51.2 39 32.5c.3-.3.3-.9-.1-1.2zM59.8 21.9c-.5-.1-1 .1-1.1.6l-17.9 57c-.1.5.1 1 .6 1.1h.3c.4 0 .7-.2.8-.6l17.9-57c.1-.5-.1-1-.6-1.1z"></path></g><!----><g data-v-423bf9ae="" id="b3da5808-1522-47dc-b2ae-c3f42e906566" fill="#ffffff" transform="matrix(13.802894222623982,0,0,13.802894222623982,101.80376981910052,21.351893666471497)"><path d="M1.26 2.80L1.26 12.60L3.64 12.60C5.06 12.60 6.20 12.15 7.05 11.25C7.90 10.35 8.33 9.17 8.33 7.70C8.33 6.23 7.90 5.05 7.05 4.15C6.20 3.25 5.06 2.80 3.64 2.80ZM1.68 3.22L3.64 3.22C4.94 3.22 5.97 3.63 6.73 4.46C7.50 5.28 7.88 6.37 7.88 7.70C7.88 9.09 7.50 10.18 6.75 10.98C5.99 11.78 4.96 12.18 3.64 12.18L1.68 12.18ZM17.71 7.48L22.05 7.48L22.05 7.08L17.71 7.08L17.71 3.21L22.33 3.21L22.33 2.80L17.29 2.80L17.29 12.60L22.33 12.60L22.33 12.19L17.71 12.19ZM34.93 12.03L31.15 2.80L30.66 2.80L34.93 12.95L39.20 2.80L38.71 2.80Z"></path></g></svg>