<svg id="OBJECTS" xmlns="http://www.w3.org/2000/svg" viewBox="0 0 536.45 495.58"><defs><style>.cls-1{opacity:0.67;}.cls-2{fill:#6387c1;}.cls-3{fill:#ebe8ec;}.cls-4{fill:#ecd0a1;}.cls-5{fill:#1e2322;}.cls-6{fill:#ddbb8a;}.cls-7{fill:#fed976;}.cls-8{fill:#fff;}.cls-9{fill:#28243f;}.cls-10{fill:#333049;}.cls-11{fill:#3f2a3f;}.cls-12{fill:#f2b10f;}.cls-13{fill:#ddd9d9;}.cls-14{fill:#8cacdd;}.cls-15{fill:#a0bcea;}.cls-16{fill:#d2e1f7;}</style></defs><title>Mesa de trabajo 1</title><g class="cls-1"><ellipse class="cls-2" cx="274.58" cy="477.97" rx="261.87" ry="17.61"/></g><path class="cls-3" d="M377.76,474.79a374.07,374.07,0,0,0,55.66,4.59,341.34,341.34,0,0,0,52.51-4.59l-2.1-4.65c-9.21-20.45-44.07-12.5-52-33.6h0c-6.59,21.1-42.77,13.15-52,33.6Z"/><rect class="cls-3" x="425.25" y="316.07" width="14.51" height="135.88" transform="translate(865.01 768.01) rotate(180)"/><polygon class="cls-4" points="429.38 440.8 423.05 426.96 409.17 432.06 413.02 446.31 429.38 440.8"/><path class="cls-5" d="M429.35,440.59l3.33,11.32L418,456.54s-33.11,13.9-39.28,7.46c-2.83-3,7.95-5.87,14.87-10.45s17.79-11.05,17.79-11.05A69.71,69.71,0,0,0,429.35,440.59Z"/><polygon class="cls-4" points="356.07 461.26 353.91 446.19 339.16 447.18 338.83 461.93 356.07 461.26"/><path class="cls-5" d="M356.11,461.05v11.8l-15.38.3s-35.69,4-39.79-3.93c-1.88-3.64,9.29-3.39,17.22-5.83s20.18-5.58,20.18-5.58A69.69,69.69,0,0,0,356.11,461.05Z"/><path class="cls-6" d="M222.69,201.46l20.38-6.76,18.05,4.57c10.16-2.65,13.54-2.5,34.34-7.85C313,186.91,333.2,177.9,333.2,177.9l14.95-25.07c9.67.88,30,11.44,30,11.44s-27.8,37.81-35.71,40.45-61.28,9.15-81.62,6.81c-6.41-.73-18.94-7.51-18.94-7.51l-16.09,2.67-12.54,8.46-2.19-1.81,5-5.46Z"/><path class="cls-7" d="M363.57,105.1s25.91,4.34,25.47,27.65c-.28,15.18-21.1,43.53-21.1,43.53s-11.44-15.83-25.51-20.23c0,0,9.14-26.8,11.94-35.19C357.88,110.32,363.57,105.1,363.57,105.1Z"/><rect class="cls-3" x="406.78" y="312.11" width="51.45" height="27.7" transform="translate(865.01 651.92) rotate(180)"/><path class="cls-3" d="M413.67,204.36q-3.8-50.27-5.45-100.66C440,89.54,511,95.86,517.59,116.87c7,22.29-19.79,85.75-19.79,109.49s9.24,40.9,10.56,51.45-5.28,18.47-5.28,18.47H421.76C419.69,265.6,416,235,413.67,204.36Z"/><path class="cls-8" d="M413.67,204.36q-4-52.38-5.59-104.91c34.95-8.16,90.49-1,96.32,17.42,7,22.29-19.79,85.75-19.79,109.49s9.23,40.9,10.55,51.45-5.27,18.47-5.27,18.47H421.76C419.69,265.6,416,235,413.67,204.36Z"/><path class="cls-8" d="M358,296.28H503.08a0,0,0,0,1,0,0v25.06a0,0,0,0,1,0,0h-153a0,0,0,0,1,0,0V304.24A8,8,0,0,1,358,296.28Z" transform="translate(853.13 617.62) rotate(180)"/><path class="cls-9" d="M379.08,238.67s-73.21,43.5-77.56,61.46c-5.2,21.43,29.91,148.32,29.91,148.32,8.28,5.58,23.63,3.69,29.28-1.38,0,0-28.24-108.58-25.17-115.83,7.54-17.76,71.68-38.92,91.91-58.27s22-37.81,22-37.81Z"/><path class="cls-10" d="M462.77,219.22s24.93,52,2.51,73.1c-10.27,9.66-71.69.88-75.21,10.55l37.08,123.2s-6.54,4-19.73,10.57c0,0-77.15-136-69.24-153.55s61.12-27.71,63.76-37.38,4.4-25.5,4.4-25.5Z"/><path class="cls-4" d="M357,78.2c1.59,6,4.42,12.69,10.35,14.65,5.44,1.81,11.23-1.11,16.16-4,5.8-3.46,11.68-7.24,15.39-12.88,5.63-8.56,10.19-19,9.55-29.24-.22-3.62-5.51-8-7.7-10.93a16.24,16.24,0,0,0-6.17-4.43,64.78,64.78,0,0,0-17.33-5.42c-10-1.63-21.14.61-23.14,11.6C351.72,50.59,353.63,65.48,357,78.2Z"/><path class="cls-11" d="M371.62,54.9a2.74,2.74,0,1,0,2.73-2.74A2.73,2.73,0,0,0,371.62,54.9Z"/><path class="cls-11" d="M356.08,54.9a2.74,2.74,0,1,0,2.74-2.74A2.74,2.74,0,0,0,356.08,54.9Z"/><path class="cls-11" d="M376.79,64.85a9.53,9.53,0,1,1,9.55-9.53A9.54,9.54,0,0,1,376.79,64.85Zm0-17.29a7.77,7.77,0,1,0,7.78,7.76A7.78,7.78,0,0,0,376.79,47.56Z"/><path class="cls-11" d="M362.43,50.25,361,49.19a6.46,6.46,0,0,1,4.88-2.58,7.47,7.47,0,0,1,5.78,2.31l-1.27,1.21A5.78,5.78,0,0,0,366,48.37,4.72,4.72,0,0,0,362.43,50.25Z"/><path class="cls-11" d="M355.75,64.85a9.53,9.53,0,1,1,9.54-9.53A9.54,9.54,0,0,1,355.75,64.85Zm0-17.29a7.77,7.77,0,1,0,7.78,7.76A7.78,7.78,0,0,0,355.75,47.56Z"/><path class="cls-4" d="M427.56,94.66s-.11-2-7.15-3.73c-2-.51-4.54-.51-6.15-1.92-5.69-5-10.92-14.24-12.86-21.07a6,6,0,0,1-.31-3.1q-7.12,6-13.77,12.64c-1.51,1.51-10.67.65-9.56,2.69.31.58,2.64,5.91,4.93,11.08-4.44,2.91-9.33,6.71-9.33,6.71l-6.16,34.3,18,10.11s20.23-4.39,33.42-11.43S427.56,94.66,427.56,94.66Z"/><path class="cls-12" d="M420.41,90.93s-5.28,9.67-18.47,15.39-25.06-11.44-25.06-11.44L363.57,105.1s-1.2,46.76,4.51,72.26,11,61.31,11,61.31,5.89,8.65,13.43,9.16c9.22.62,21.91-6.6,42-3,22.26,4,38.83.49,38.83.49S456.19,161.66,452.23,145,438,94,438,94A142.5,142.5,0,0,0,420.41,90.93Z"/><path class="cls-3" d="M182.06,208.84h79.35a3,3,0,0,1,3,3v3.63a0,0,0,0,1,0,0H182.06a0,0,0,0,1,0,0v-6.64A0,0,0,0,1,182.06,208.84Z" transform="translate(446.47 424.33) rotate(180)"/><path class="cls-13" d="M211.8,133.17a5.44,5.44,0,0,1,5.12,3.58l26.15,72.18-1.62.68.43,1.26-59.82-2L156.6,140.49a5.44,5.44,0,0,1,5.1-7.34Z"/><path class="cls-3" d="M191.34,175.9c1.77,6.81,5.25,12.24,7.77,12.13s3.12-5.72,1.34-12.53-5.25-12.24-7.77-12.13S189.57,169.09,191.34,175.9Z"/><path class="cls-11" d="M366,49c.1,5.27-2,9.23-4.23,13.85-1,2-1.79,4.79-1,7a.81.81,0,0,0,.76.58c2-.06,4.39-1.47,6.25-2.3.76-.34.22-1.65-.58-1.37s-1.76.78-2.66,1c-1.89.51-2.22.82-2.29-1.19-.1-2.49,2.12-5.19,3-7.44A21.34,21.34,0,0,0,366.84,49c0-.56-.89-.57-.88,0Z"/><path class="cls-11" d="M373,44.13a15.07,15.07,0,0,0,3.35.43c1.18.11,2.36.27,3.53.41,1.52.18,1.89-2.45.37-2.69-2.23-.36-5-.91-7.25-.36a1.16,1.16,0,0,0,0,2.21Z"/><path class="cls-11" d="M355.49,44.17c1.87.31,3.77,0,5.66.12s1.72-2.55,0-2.73c-2-.21-4.25-.17-5.86,1.07-.5.38-.61,1.41.2,1.54Z"/><path class="cls-11" d="M385.48,53.57a30.24,30.24,0,0,0,5.42-1.49,24.38,24.38,0,0,0,5.31-1.92.63.63,0,0,0-.32-1.17,18.69,18.69,0,0,0-5.47,1.36,22.3,22.3,0,0,0-5.23,2.14c-.43.28-.32,1.15.29,1.08Z"/><path class="cls-10" d="M371.78,39.79c-8.56-.56-17.56-.61-25-4.51-3.64-1.89-6.9-4.91-7.6-8.73s2.1-8.23,6.26-8.51a5.3,5.3,0,0,0,2.5-.4c.92-.56,1.07-1.72,1.21-2.74.93-6.78,6.64-13.62,14-13.46,6,.14,11.61,4.77,17.43,3.37a26.56,26.56,0,0,0,5-2.2A26.82,26.82,0,0,1,401.78.41c5.77,1,11.89,5.57,10.48,10.86-.47,1.77-1.74,3.3-2.08,5.1-1.2,6.4,9,9.58,11,15.8,1.84,5.66-3.76,11.3-3.33,17.19.24,3.28,2.15,7.13-.34,9.46-1.34,1.25-3.61,1.56-4.5,3.1-1.22,2.11,1.05,4.49,1.25,6.88.24,3-3.13,5.42-6.31,5.17a8.91,8.91,0,0,1-7.07-5.32,19.21,19.21,0,0,1-1.25-8.73c5.39-1.52,8.7-10.39,3.63-12.66-2.7-1.21-5.57,1.73-6.59,4.22C391.32,43,382.78,39.79,371.78,39.79Z"/><path class="cls-10" d="M393.63,53.45Q391,59.58,388.3,65.73a11.84,11.84,0,0,1-2.83,4.5c-2.08,1.77-5.12,1.88-7.8,1.34s-7.79-2-10.51-1.78c-6.22.53-10.8,3.51-11.19,4.26-.8,1.52.32,3.89.34,5.6a9.77,9.77,0,0,1-1.19,5.21,17.41,17.41,0,0,1-2.32,2.76c-2.21,2.35-4.2,5.28-4,8.5.25,4.41,4.3,7.48,8,9.92,2.35,1.56,4.78,3.16,7.56,3.67a21,21,0,0,0,5.66,0,56.48,56.48,0,0,0,11.66-1.86,19,19,0,0,0,9.76-6.35c2-2.69,3-6,4-9.24,1.52-5.23,3-10.53,3.21-16,.18-5.1-.8-10.16-1.32-15.24A83.81,83.81,0,0,1,397,47.7c0-.54.09-1.85-.71-2s-.58,1.21-.7,1.77A31.32,31.32,0,0,1,393.63,53.45Z"/><path class="cls-4" d="M360.83,76.8a5,5,0,0,0,1,5.57,3.1,3.1,0,0,0,2.44,1A1.84,1.84,0,0,0,366,81.54c0-.33-.16-.7,0-1s.55-.32.87-.34c1.21-.06,2.7,0,3.27,1.09.17.32.23.71.43,1a2.48,2.48,0,0,0,2.38.76,13.86,13.86,0,0,0,3.7-.82,4.26,4.26,0,0,0,1.64-1,1.8,1.8,0,0,0,.47-1.78,2.69,2.69,0,0,0-1.07-1.15C373.89,75.67,363.89,70.18,360.83,76.8Z"/><path class="cls-11" d="M362.72,76.76c2,1.26,6.19,1.33,8.11-.13a.63.63,0,0,0-.31-1.17c-1.27,0-2.49.51-3.77.57s-2.53-.19-3.8-.13a.46.46,0,0,0-.23.86Z"/><path class="cls-8" d="M416.42,303.78s-2.54-71,13.31-75.66,50.7-3.35,50.7-3.35l3.17,12.72s-45.63-3.34-52,5.36,0,61.6,0,61.6Z"/><path class="cls-4" d="M288.75,199.25l20.38-6.76,18.05,4.57c10.16-2.65,13.54-2.5,34.34-7.85,17.57-4.51,37.74-13.52,37.74-13.52l22.88-34.2c9.68.88,22.06,20.57,22.06,20.57s-27.79,37.81-35.71,40.45-68.29,9.64-88.64,7.31c-6.4-.73-17.73-7.75-17.73-7.75l-10.28,2.41-12.54,8.46-2.19-1.81,5-5.46Z"/><path class="cls-7" d="M438,94s27.26,4.4,26.82,27.71c-.28,15.18-21.1,43.53-21.1,43.53S432.28,149.41,418.21,145c0,0,11-21.54,11.87-30.34S438,94,438,94Z"/><path class="cls-13" d="M243.07,208.84h79.35a3,3,0,0,1,3,3v3.63a0,0,0,0,1,0,0H243.07a0,0,0,0,1,0,0v-6.64A0,0,0,0,1,243.07,208.84Z" transform="translate(568.49 424.33) rotate(180)"/><rect class="cls-3" x="290.28" y="210.95" width="27.45" height="2.06" transform="translate(608.02 423.97) rotate(180)"/><rect class="cls-3" x="282.11" y="210.95" width="4.06" height="2.06" transform="translate(568.27 423.97) rotate(180)"/><polygon class="cls-8" points="117.32 187.6 113.62 160.35 114.95 155.4 117.92 159.55 121.34 187.33 117.32 187.6"/><polygon class="cls-8" points="135.24 189.39 139.11 162.17 141.74 157.76 143.47 162.57 139.19 190.22 135.24 189.39"/><polygon class="cls-8" points="122.75 191.5 123.09 163.61 125.47 159.21 127.51 163.68 127.13 191.54 122.75 191.5"/><polygon class="cls-7" points="139.32 218.42 118.23 218.42 114.4 183.45 142.1 183.45 139.32 218.42"/><polygon class="cls-8" points="411.74 482.96 416.8 482.96 359.86 235.25 349.14 235.25 411.74 482.96"/><polygon class="cls-8" points="257.47 480.36 262.53 480.36 299.16 235.25 288.43 235.25 257.47 480.36"/><polygon class="cls-8" points="180.75 481.86 185.8 481.86 145.56 235.25 134.83 235.25 180.75 481.86"/><polygon class="cls-8" points="38.91 479.24 43.96 479.24 92.41 235.25 81.69 235.25 38.91 479.24"/><rect class="cls-14" x="123.09" y="224.18" width="267.07" height="11.07" transform="translate(513.25 459.44) rotate(180)"/><rect class="cls-15" x="37.45" y="224.18" width="246.29" height="11.07" transform="translate(321.18 459.44) rotate(180)"/><rect class="cls-15" x="129.03" y="214.92" width="285.64" height="14.82" transform="translate(543.7 444.66) rotate(180)"/><rect class="cls-16" y="214.92" width="264.85" height="14.82" transform="translate(264.85 444.66) rotate(180)"/></svg>