<?xml version="1.0" standalone="no"?><!DOCTYPE svg PUBLIC "-//W3C//DTD SVG 1.1//EN" "http://www.w3.org/Graphics/SVG/1.1/DTD/svg11.dtd"><svg t="1593444345427" class="icon" viewBox="0 0 1027 1024" version="1.1" xmlns="http://www.w3.org/2000/svg" p-id="7311" xmlns:xlink="http://www.w3.org/1999/xlink" width="200.5859375" height="200"><defs><style type="text/css"></style></defs><path fill="#fff" d="M966.48986 0H57.51014C25.560062 0 0 25.560062 0 57.51014v908.97972c0 31.950078 25.560062 57.51014 57.51014 57.51014h488.836194V627.819033h-132.592824v-154.957879h132.592824v-113.422776c0-132.592824 79.875195-204.480499 198.090483-204.4805 39.937598 0 79.875195 1.597504 118.215289 6.390016v137.385335h-79.875195c-63.900156 0-76.680187 30.352574-76.680187 75.082684v99.045241h153.360374l-19.170047 154.957879h-132.592823V1022.402496h260.393135c31.950078 0 57.51014-25.560062 57.510141-57.51014V57.51014C1022.402496 25.560062 996.842434 0 966.48986 0z" p-id="7312"></path></svg>