<?xml version="1.0" standalone="no"?><!DOCTYPE svg PUBLIC "-//W3C//DTD SVG 1.1//EN" "http://www.w3.org/Graphics/SVG/1.1/DTD/svg11.dtd"><svg t="1593444375009" class="icon" viewBox="0 0 1024 1024" version="1.1" xmlns="http://www.w3.org/2000/svg" p-id="7434" xmlns:xlink="http://www.w3.org/1999/xlink" width="200" height="200"><defs><style type="text/css"></style></defs><path fill="#fff" d="M512 12.8C230.4 12.8 0 241.6 0 524.8c0 225.6 147.2 417.6 350.4 486.4 25.6 4.8 35.2-11.2 35.2-24 0-11.2 0-44.8-1.6-88-142.4 32-172.8-68.8-172.8-68.8-24-59.2-57.6-73.6-57.6-73.6-46.4-32 3.2-32 3.2-32 51.2 3.2 78.4 52.8 78.4 52.8 44.8 78.4 120 56 148.8 41.6 4.8-33.6 17.6-56 32-68.8-112-11.2-232-56-232-251.2 0-56 20.8-100.8 52.8-136-4.8-12.8-22.4-64 4.8-136 0 0 43.2-14.4 140.8 52.8 41.6-11.2 84.8-17.6 128-17.6s88 4.8 128 17.6c97.6-65.6 139.2-52.8 139.2-52.8 27.2 70.4 11.2 123.2 4.8 136 32 35.2 52.8 81.6 52.8 136 0 195.2-120 240-233.6 251.2 17.6 16 35.2 48 35.2 94.4 0 68.8-1.6 123.2-1.6 139.2 0 14.4 9.6 28.8 35.2 24C876.8 940.8 1024 748.8 1024 523.2 1022.4 241.6 793.6 12.8 512 12.8z" p-id="7435"></path></svg>