<?xml version="1.0" standalone="no"?><!DOCTYPE svg PUBLIC "-//W3C//DTD SVG 1.1//EN" "http://www.w3.org/Graphics/SVG/1.1/DTD/svg11.dtd"><svg t="1593445744497" class="icon" viewBox="0 0 1024 1024" version="1.1" xmlns="http://www.w3.org/2000/svg" p-id="6207" xmlns:xlink="http://www.w3.org/1999/xlink" width="200" height="200"><defs><style type="text/css"></style></defs><path d="M1020.8 300.8c-3.2-54.4-11.2-91.2-24-124.8-12.8-33.6-30.4-62.4-59.2-91.2S881.6 40 848 27.2C816 14.4 777.6 6.4 723.2 3.2 668.8 0 651.2 0 512 0s-156.8 0-211.2 3.2c-54.4 3.2-91.2 11.2-124.8 24-33.6 12.8-62.4 30.4-89.6 59.2S40 142.4 27.2 176C14.4 208 6.4 246.4 3.2 300.8 0 355.2 0 372.8 0 512s0 156.8 3.2 211.2c3.2 54.4 11.2 91.2 24 124.8 12.8 33.6 30.4 62.4 59.2 91.2 28.8 28.8 57.6 46.4 91.2 59.2 32 12.8 70.4 20.8 124.8 24 52.8 1.6 70.4 1.6 209.6 1.6s156.8 0 211.2-3.2c54.4-3.2 91.2-11.2 124.8-24 33.6-12.8 62.4-30.4 91.2-59.2 28.8-28.8 46.4-57.6 59.2-91.2 12.8-32 20.8-70.4 24-124.8 1.6-52.8 1.6-70.4 1.6-209.6s0-156.8-3.2-211.2zM928 718.4c-1.6 49.6-11.2 76.8-17.6 94.4-9.6 24-20.8 41.6-38.4 59.2-17.6 17.6-35.2 28.8-59.2 38.4-17.6 6.4-44.8 16-94.4 17.6-54.4 3.2-70.4 3.2-206.4 3.2s-153.6 0-206.4-3.2c-49.6-1.6-76.8-11.2-94.4-17.6-24-9.6-41.6-20.8-59.2-38.4-17.6-17.6-28.8-35.2-38.4-59.2-6.4-17.6-16-44.8-17.6-94.4-3.2-52.8-3.2-68.8-3.2-206.4s0-153.6 3.2-206.4c1.6-49.6 11.2-76.8 17.6-94.4 9.6-24 20.8-41.6 38.4-59.2 17.6-17.6 35.2-28.8 59.2-38.4 17.6-6.4 44.8-16 94.4-17.6 54.4-3.2 70.4-3.2 206.4-3.2s153.6 0 206.4 3.2c49.6 1.6 76.8 11.2 94.4 17.6 24 9.6 41.6 20.8 59.2 38.4 17.6 17.6 28.8 35.2 38.4 59.2 6.4 17.6 16 44.8 17.6 94.4 3.2 54.4 3.2 70.4 3.2 206.4s0 153.6-3.2 206.4z" p-id="6208"></path><path d="M512 249.6c-145.6 0-262.4 118.4-262.4 262.4 0 145.6 118.4 262.4 262.4 262.4S774.4 657.6 774.4 512 657.6 249.6 512 249.6z m0 433.6c-94.4 0-171.2-76.8-171.2-171.2S417.6 340.8 512 340.8 683.2 417.6 683.2 512 606.4 683.2 512 683.2z" p-id="6209"></path><path d="M724.8 238.4a60.8 60.8 0 1 0 121.6 0 60.8 60.8 0 1 0-121.6 0Z" p-id="6210"></path></svg>