<?xml version="1.0" standalone="no"?><!DOCTYPE svg PUBLIC "-//W3C//DTD SVG 1.1//EN" "http://www.w3.org/Graphics/SVG/1.1/DTD/svg11.dtd"><svg t="1593443800266" class="icon" viewBox="0 0 1024 1024" version="1.1" xmlns="http://www.w3.org/2000/svg" p-id="7142" xmlns:xlink="http://www.w3.org/1999/xlink" width="200" height="200"><defs><style type="text/css"></style></defs><path fill="#fff" d="M948.8 0H75.2C33.6 0 0 33.6 0 73.6v876.8C0 990.4 33.6 1024 75.2 1024h872c41.6 0 75.2-33.6 75.2-73.6V73.6c1.6-40-32-73.6-73.6-73.6zM304 872H152V384H304v488z m-76.8-555.2c-48 0-88-40-88-88s40-88 88-88 88 40 88 88c0 49.6-38.4 88-88 88z m644.8 555.2H720V635.2c0-56-1.6-129.6-78.4-129.6-78.4 0-91.2 62.4-91.2 124.8v241.6h-152V384H544v67.2h1.6c20.8-38.4 70.4-78.4 144-78.4 153.6 0 182.4 100.8 182.4 233.6v265.6z" p-id="7143"></path></svg>