<?xml version="1.0" standalone="no"?><!DOCTYPE svg PUBLIC "-//W3C//DTD SVG 1.1//EN" "http://www.w3.org/Graphics/SVG/1.1/DTD/svg11.dtd"><svg t="1593444398406" class="icon" viewBox="0 0 1024 1024" version="1.1" xmlns="http://www.w3.org/2000/svg" p-id="7557" xmlns:xlink="http://www.w3.org/1999/xlink" width="200" height="200"><defs><style type="text/css"></style></defs><path d="M321.6 929.6c387.2 0 598.4-320 598.4-598.4 0-8 0-17.6-1.6-27.2 41.6-30.4 76.8-67.2 104-108.8-38.4 17.6-78.4 28.8-121.6 33.6 43.2-25.6 76.8-67.2 92.8-116.8-41.6 24-84.8 41.6-134.4 51.2C820.8 121.6 766.4 96 705.6 96c-116.8 0-211.2 94.4-211.2 211.2 0 16 1.6 32 4.8 48-169.6-9.6-324.8-92.8-428.8-220.8-17.6 32-28.8 67.2-28.8 105.6 0 73.6 36.8 137.6 94.4 174.4-35.2-1.6-67.2-11.2-94.4-25.6v1.6c0 100.8 72 187.2 168 206.4-17.6 4.8-36.8 8-54.4 8-14.4 0-27.2-1.6-40-4.8 27.2 83.2 104 144 196.8 145.6-72 56-163.2 89.6-260.8 89.6-19.2 1.6-35.2 0-51.2-1.6 91.2 60.8 203.2 96 321.6 96" p-id="7558"></path></svg>